<?xml version="1.0" standalone="no"?>
<!DOCTYPE svg PUBLIC "-//W3C//DTD SVG 20010904//EN"
 "http://www.w3.org/TR/2001/REC-SVG-20010904/DTD/svg10.dtd">
<svg version="1.0" xmlns="http://www.w3.org/2000/svg"
 width="626.000000pt" height="142.000000pt" viewBox="0 0 626.000000 142.000000"
 preserveAspectRatio="xMidYMid meet">
<metadata>
Created by potrace 1.16, written by Peter Selinger 2001-2019
</metadata>
<g transform="translate(0.000000,142.000000) scale(0.100000,-0.100000)"
fill="#000000" stroke="none">
<path d="M515 1201 c-86 -21 -168 -93 -208 -180 -16 -35 -22 -66 -22 -126 0
-72 4 -89 44 -180 24 -55 47 -110 52 -121 6 -18 -7 -44 -72 -139 -43 -64 -79
-122 -79 -128 1 -17 359 -212 369 -201 4 5 15 27 24 49 9 22 37 87 62 145 l46
104 -22 58 c-17 47 -21 73 -17 136 7 119 63 209 161 258 l49 25 -7 47 c-26
173 -208 295 -380 253z m148 -188 c18 -9 37 -32 49 -60 27 -61 18 -105 -32
-155 -33 -33 -44 -38 -85 -38 -83 0 -138 54 -138 135 0 110 103 170 206 118z
m-177 -661 c39 -92 70 -168 69 -170 -2 -2 -66 31 -144 74 -90 50 -138 81 -132
88 4 6 34 51 65 99 32 49 61 86 64 82 4 -3 39 -81 78 -173z"/>
<path d="M3690 1130 l0 -80 100 0 100 0 0 80 0 80 -100 0 -100 0 0 -80z"/>
<path d="M1915 951 c-11 -5 -37 -27 -58 -50 l-37 -41 0 40 0 40 -90 0 -90 0 0
-355 0 -355 94 0 94 0 4 213 c3 190 6 217 25 259 18 39 28 49 60 58 32 10 46
9 78 -4 21 -9 42 -13 46 -9 4 5 18 45 32 91 l26 82 -26 17 c-29 19 -127 28
-158 14z"/>
<path d="M2330 943 c-65 -23 -151 -112 -180 -188 -19 -49 -24 -80 -24 -170 -1
-127 15 -185 74 -262 54 -72 128 -106 240 -111 143 -7 222 29 293 134 57 86
55 88 -73 99 l-75 7 -18 -37 c-21 -44 -74 -70 -123 -60 -64 12 -124 84 -124
150 l0 25 231 0 232 0 -5 88 c-10 164 -80 275 -201 320 -70 26 -180 28 -247 5z
m200 -151 c33 -24 60 -78 60 -119 l0 -33 -136 0 -137 0 7 42 c19 115 123 171
206 110z"/>
<path d="M4230 943 c-65 -23 -151 -112 -180 -188 -19 -49 -24 -80 -24 -170 -1
-127 15 -185 74 -262 54 -72 128 -106 240 -111 143 -7 222 29 293 134 57 86
55 88 -73 99 l-75 7 -18 -37 c-21 -44 -74 -70 -123 -60 -64 12 -124 84 -124
150 l0 25 231 0 232 0 -5 88 c-10 164 -80 275 -201 320 -70 26 -180 28 -247 5z
m200 -151 c33 -24 60 -78 60 -119 l0 -33 -136 0 -137 0 7 42 c19 115 123 171
206 110z"/>
<path d="M2850 932 c0 -4 62 -163 138 -352 l138 -345 89 0 89 0 137 345 c76
190 138 348 138 353 1 4 -43 7 -97 7 l-97 0 -49 -132 c-27 -73 -66 -180 -87
-238 -21 -58 -38 -99 -38 -92 -1 7 -38 113 -83 237 l-81 225 -99 0 c-54 0 -98
-3 -98 -8z"/>
<path d="M3690 585 l0 -355 100 0 100 0 0 355 0 355 -100 0 -100 0 0 -355z"/>
<path d="M4750 932 c0 -4 62 -163 138 -352 l138 -345 89 0 89 0 137 345 c76
190 138 348 138 353 1 4 -43 7 -97 7 l-97 0 -49 -132 c-27 -73 -66 -180 -87
-238 -21 -58 -38 -99 -38 -92 -1 7 -38 113 -83 237 l-81 225 -99 0 c-54 0 -98
-3 -98 -8z"/>
<path d="M5510 932 c0 -4 62 -163 138 -352 l138 -345 89 0 89 0 137 345 c76
190 138 348 138 353 1 4 -43 7 -97 7 l-97 0 -49 -132 c-27 -73 -66 -180 -87
-238 -21 -58 -38 -99 -38 -92 -1 7 -38 113 -83 237 l-81 225 -99 0 c-54 0 -98
-3 -98 -8z"/>
<path d="M917 856 c-49 -18 -113 -62 -136 -95 -75 -106 -65 -270 23 -350 31
-29 32 -45 7 -93 -10 -21 -16 -39 -14 -42 8 -7 76 15 111 36 25 15 53 21 110
22 59 1 88 7 122 25 96 49 149 124 157 222 15 157 -112 290 -276 289 -36 -1
-83 -7 -104 -14z"/>
<path d="M6 53 c-3 -3 -6 -17 -6 -30 0 -20 4 -24 27 -21 14 2 29 9 31 17 3 10
0 12 -12 8 -10 -4 -16 -1 -16 8 0 16 -14 27 -24 18z"/>
</g>
</svg>
