<?xml version="1.0" standalone="no"?>
<!DOCTYPE svg PUBLIC "-//W3C//DTD SVG 20010904//EN"
 "http://www.w3.org/TR/2001/REC-SVG-20010904/DTD/svg10.dtd">
<svg version="1.0" xmlns="http://www.w3.org/2000/svg"
 width="450.000000pt" height="142.000000pt" viewBox="0 0 450 142"
 preserveAspectRatio="xMidYMid meet">
<metadata>
Created by Antigravity (Zero Trust)
</metadata>
<g transform="translate(0.000000,142.000000) scale(0.100000,-0.100000)"
fill="#000000" stroke="none">
<path d="M515 1201 c-86 -21 -168 -93 -208 -180 -16 -35 -22 -66 -22 -126 0
-72 4 -89 44 -180 24 -55 47 -110 52 -121 6 -18 -7 -44 -72 -139 -43 -64 -79
-122 -79 -128 1 -17 359 -212 369 -201 4 5 15 27 24 49 9 22 37 87 62 145 l46
104 -22 58 c-17 47 -21 73 -17 136 7 119 63 209 161 258 l49 25 -7 47 c-26
173 -208 295 -380 253z m148 -188 c18 -9 37 -32 49 -60 27 -61 18 -105 -32
-155 -33 -33 -44 -38 -85 -38 -83 0 -138 54 -138 135 0 110 103 170 206 118z
m-177 -661 c39 -92 70 -168 69 -170 -2 -2 -66 31 -144 74 -90 50 -138 81 -132
88 4 6 34 51 65 99 32 49 61 86 64 82 4 -3 39 -81 78 -173z"/>
<path d="M917 856 c-49 -18 -113 -62 -136 -95 -75 -106 -65 -270 23 -350 31
-29 32 -45 7 -93 -10 -21 -16 -39 -14 -42 8 -7 76 15 111 36 25 15 53 21 110
22 59 1 88 7 122 25 96 49 149 124 157 222 15 157 -112 290 -276 289 -36 -1
-83 -7 -104 -14z"/>
<path d="M6 53 c-3 -3 -6 -17 -6 -30 0 -20 4 -24 27 -21 14 2 29 9 31 17 3 10
0 12 -12 8 -10 -4 -16 -1 -16 8 0 16 -14 27 -24 18z"/>
</g>
<text x="145" y="93" 
      font-family="-apple-system, 'Helvetica Neue', Arial, sans-serif" 
      font-weight="800" 
      font-size="64px" 
      letter-spacing="-2px"
      fill="#000000">revievv</text>
</svg>
